<?xml version="1.0" encoding="UTF-8" standalone="no"?>
<svg
   xmlns:dc="http://purl.org/dc/elements/1.1/"
   xmlns:cc="http://creativecommons.org/ns#"
   xmlns:rdf="http://www.w3.org/1999/02/22-rdf-syntax-ns#"
   xmlns:svg="http://www.w3.org/2000/svg"
   xmlns="http://www.w3.org/2000/svg"
   xmlns:sodipodi="http://sodipodi.sourceforge.net/DTD/sodipodi-0.dtd"
   xmlns:inkscape="http://www.inkscape.org/namespaces/inkscape"
   width="210mm"
   height="297mm"
   viewBox="0 0 210 297"
   version="1.1"
   id="svg8"
   inkscape:version="1.0.2 (e86c870879, 2021-01-15)"
   sodipodi:docname="cloud-ofi.svg">
  <defs
     id="defs2" />
  <sodipodi:namedview
     id="base"
     pagecolor="#ffffff"
     bordercolor="#666666"
     borderopacity="1.0"
     inkscape:pageopacity="0.0"
     inkscape:pageshadow="2"
     inkscape:zoom="1.4"
     inkscape:cx="317.9553"
     inkscape:cy="561.07595"
     inkscape:document-units="mm"
     inkscape:current-layer="g1028"
     inkscape:document-rotation="0"
     showgrid="false"
     inkscape:window-width="1920"
     inkscape:window-height="1006"
     inkscape:window-x="0"
     inkscape:window-y="33"
     inkscape:window-maximized="1" />
  <metadata
     id="metadata5">
    <rdf:RDF>
      <cc:Work
         rdf:about="">
        <dc:format>image/svg+xml</dc:format>
        <dc:type
           rdf:resource="http://purl.org/dc/dcmitype/StillImage" />
        <dc:title />
      </cc:Work>
    </rdf:RDF>
  </metadata>
  <g
     inkscape:label="Layer 1"
     inkscape:groupmode="layer"
     id="layer1">
    <g
       id="g1084"
       transform="matrix(0.26458333,0,0,0.26458333,97.914878,146.76981)">
      <g
         id="g1028"
         style="fill:#008080;fill-opacity:1">
        <path
           style="fill:#bbdfc8;fill-opacity:1;stroke-width:0.298273"
           d="m 375.81522,578.69699 c -0.69038,-0.0693 -1.25525,-0.2434 -1.75198,-0.54007 -1.22283,-0.73032 -1.97237,-2.04058 -1.97265,-3.44834 -1.1e-4,-0.59672 0.13302,-1.1578 0.40822,-1.72042 0.4852,-0.99195 1.29269,-1.6978 2.34801,-2.05246 0.25671,-0.0863 0.31982,-0.11926 0.31406,-0.16417 -0.2853,-2.22297 0.35943,-4.27126 1.83905,-5.84264 1.31464,-1.39618 3.14991,-2.18431 5.08647,-2.18431 1.06813,0 2.1068,0.24126 3.06091,0.71098 0.74759,0.36805 1.33713,0.80265 1.95321,1.43989 0.69213,0.71592 1.15682,1.45087 1.51415,2.39482 0.0822,0.21703 0.15344,0.39888 0.15841,0.40412 0.005,0.005 0.12786,-0.0716 0.27309,-0.17088 0.51876,-0.35442 1.15228,-0.61056 1.79464,-0.72558 0.36863,-0.066 1.07152,-0.0647 1.46831,0.003 1.81274,0.30814 3.24839,1.67957 3.64754,3.48438 0.0331,0.14983 0.0605,0.30944 0.0609,0.3547 6.7e-4,0.0811 0.005,0.0826 0.29268,0.10413 0.95842,0.0717 1.80241,0.43903 2.48546,1.08158 2.01312,1.89381 1.53021,5.20322 -0.94109,6.44934 -0.32282,0.16278 -0.62291,0.26819 -1.01562,0.35677 l -0.29989,0.0676 -10.30671,0.004 c -5.6687,0.002 -10.35643,-5.6e-4 -10.4172,-0.007 z"
           id="path1086"
           transform="translate(-370.07198,-554.72055)"
           inkscape:export-xdpi="343.36761"
           inkscape:export-ydpi="343.36761" />
        <rect
           style="fill:#75cfb8;fill-opacity:1;stroke-width:9.44882"
           id="rect939"
           width="73.16996"
           height="65.353325"
           x="-136.20602"
           y="-248.90692" />
        <rect
           style="fill:#bbdfc8;fill-opacity:1;stroke-width:9.44882"
           id="rect941"
           width="62.80294"
           height="67.240463"
           x="-124.54464"
           y="-123.16791" />
        <rect
           style="fill:#f0e5d8;fill-opacity:1;stroke-width:9.44882"
           id="rect943"
           width="57.52784"
           height="71.276146"
           x="-124.3547"
           y="-8.0590048" />
        <rect
           style="fill:#ffc478;stroke-width:9.44882"
           id="rect945"
           width="65.880722"
           height="56.607529"
           x="-142.68332"
           y="89.52449" />
        <rect
           style="fill:#606c38;fill-opacity:1;stroke-width:9.44882"
           id="rect947"
           width="55.193546"
           height="72.471458"
           x="-123.46212"
           y="182.899" />
      </g>
      <g
         id="g1030" />
      <g
         id="g1032" />
      <g
         id="g1034" />
      <g
         id="g1036" />
      <g
         id="g1038" />
      <g
         id="g1040" />
      <g
         id="g1042" />
      <g
         id="g1044" />
      <g
         id="g1046" />
      <g
         id="g1048" />
      <g
         id="g1050" />
      <g
         id="g1052" />
      <g
         id="g1054" />
      <g
         id="g1056" />
      <g
         id="g1058" />
    </g>
  </g>
</svg>
